<svg id="e84394b2-9eca-4914-b603-4e16892a4a22" data-name="Capa 1" xmlns="http://www.w3.org/2000/svg" viewBox="0 0 141.73 141.73">
  <title>Logo-Litiobyte</title>
  <g>
    <path d="M105.27,10.32,50.84,4.17a8.49,8.49,0,0,0-9.39,7.49L29,122a8.49,8.49,0,0,0,7.48,9.39l54.43,6.15a8.5,8.5,0,0,0,9.4-7.49L112.76,19.72A8.51,8.51,0,0,0,105.27,10.32Zm-37.11.86a.89.89,0,0,1,1-.79L86.05,12.3a.9.9,0,0,1,.78,1l0,.17a.88.88,0,0,1-1,.78L68.92,12.33a.87.87,0,0,1-.78-1ZM70.59,126.9a6,6,0,1,1-5.31-6.65A6,6,0,0,1,70.59,126.9Zm37.07-83.43-1.38,10.26A16.46,16.46,0,0,1,102.42,62q-3.17,3.75-9.85,5.7a20.56,20.56,0,0,1,6.11,2.25,11.79,11.79,0,0,1,3.74,3.34,11,11,0,0,1,1.79,4.09,12.52,12.52,0,0,1,.11,4.49L101.91,99a11.3,11.3,0,0,1-2.65,5.47A20.25,20.25,0,0,1,93.67,109,31.26,31.26,0,0,1,86,112a36.67,36.67,0,0,1-9.16,1.1H53.18q-20.62,0-19.12-12.44L44,29.31H86.47A34.47,34.47,0,0,1,95.4,30.4a24,24,0,0,1,7,3,13.18,13.18,0,0,1,4.32,4.5A8.56,8.56,0,0,1,107.66,43.47Z" style="fill: #1c3b4e"/>
    <path d="M84.4,42.21A9.64,9.64,0,0,0,79,40.82H63.78l-3,21.2H76.33a11,11,0,0,0,5.47-1.38c1.65-.92,2.56-2,2.71-3.11l1.73-11.87A3.54,3.54,0,0,0,84.4,42.21Z" style="fill: #1c3b4e"/>
    <path d="M81.86,75a8.08,8.08,0,0,0-5.07-1.5H59.28l-4,28h17.4a11.6,11.6,0,0,0,5.64-1.38q2.53-1.38,2.77-3.23l2.3-18.54C83.67,77.15,83.17,76,81.86,75Z" style="fill: #1c3b4e"/>
  </g>
</svg>
