<svg id="11ad11fd-8796-4557-a37c-93201c31aaf2" data-name="Capa 1" xmlns="http://www.w3.org/2000/svg" viewBox="0 0 650 200">
  <title>Logo-Litiobyte</title>
  <g>
    <g>
      <path d="M99.35,134.92q2.7,5.91-1.29,9.52T84.76,148H27.49L38,75.49A42,42,0,0,1,41.27,64a24,24,0,0,1,5.87-8.2,17,17,0,0,1,8.31-4,23.65,23.65,0,0,1,10.67.86L54.37,134.92Z" style="fill: #fff"/>
      <path d="M117.17,74.44a46.34,46.34,0,0,1,10.27-1.31,16.5,16.5,0,0,1,7.63,1.58,8.89,8.89,0,0,1,4.32,4.92q1.29,3.34.34,8.85l-8.51,59.69H106.37ZM145,53.06l-2.16,14.56H118.26L120,53.06Z" style="fill: #fff"/>
      <path d="M192.68,134.92,190.78,147a19.53,19.53,0,0,1-4.25.86c-1.49.13-3,.19-4.53.19h-5.94a40.8,40.8,0,0,1-10.4-1.24,27,27,0,0,1-8-3.42,15.73,15.73,0,0,1-5.07-5.11,10.3,10.3,0,0,1-1.49-6.23L158,87.56h-9.32l2-13.12h8.91l1.08-6A15,15,0,0,1,164,60.8a22.87,22.87,0,0,1,6.69-5.58,27,27,0,0,1,8.44-2.95,18.82,18.82,0,0,1,8.58.4l-3.51,21.77h9.32l-2,13.12h-9.18l-5.95,42.12q-.41,2.1,2,3.67a11.15,11.15,0,0,0,6.28,1.57h8.11Z" style="fill: #fff"/>
      <path d="M210.1,74.44a46.19,46.19,0,0,1,10.26-1.31A16.47,16.47,0,0,1,228,74.71a9,9,0,0,1,4.33,4.92q1.27,3.34.33,8.85l-8.51,59.69H199.29Zm27.82-21.38-2.16,14.56H211.18l1.75-14.56Z" style="fill: #fff"/>
      <path d="M291.41,73.13a39.34,39.34,0,0,1,10.19,1.25,28.44,28.44,0,0,1,8,3.41,15.15,15.15,0,0,1,5.06,5A9.56,9.56,0,0,1,316,89l-6.49,44.73a11.27,11.27,0,0,1-3,6,24.08,24.08,0,0,1-6.55,5.05,38,38,0,0,1-9,3.41,42.87,42.87,0,0,1-10.4,1.25H259.8a40.78,40.78,0,0,1-10.4-1.25,29.32,29.32,0,0,1-8.17-3.41,15,15,0,0,1-5.13-5.05,9.31,9.31,0,0,1-1.29-6L241,89a11.13,11.13,0,0,1,3-6.17,24.8,24.8,0,0,1,6.69-5,38.89,38.89,0,0,1,9.19-3.41,45.65,45.65,0,0,1,10.8-1.25ZM291,91.89c.09-1.48-.67-2.77-2.3-3.87a10.9,10.9,0,0,0-6.21-1.64H275.6A13.51,13.51,0,0,0,269,88q-3,1.65-3.1,3.87L259.94,131c-.19,1.49.56,2.71,2.22,3.67a12.77,12.77,0,0,0,6.42,1.44h6.62a14.67,14.67,0,0,0,6.82-1.44,5.35,5.35,0,0,0,3.17-3.67Z" style="fill: #fff"/>
      <path d="M533.1,134.92,531.21,147a19.62,19.62,0,0,1-4.26.86c-1.48.13-3,.19-4.52.19h-5.95a40.85,40.85,0,0,1-10.4-1.24,27,27,0,0,1-8-3.42,15.73,15.73,0,0,1-5.07-5.11A10.29,10.29,0,0,1,491.5,132l6.89-44.48h-9.32l2-13.12H500l1.08-6a14.88,14.88,0,0,1,3.31-7.61,22.7,22.7,0,0,1,6.68-5.58,27.07,27.07,0,0,1,8.44-2.95,18.82,18.82,0,0,1,8.58.4l-3.51,21.77h9.32l-2,13.12H522.7l-6,42.12c-.27,1.4.39,2.62,2,3.67a11.17,11.17,0,0,0,6.28,1.57h8.11Z" style="fill: #fff"/>
      <path d="M548,89a11.24,11.24,0,0,1,3-6.17,23.47,23.47,0,0,1,6.61-5,38.81,38.81,0,0,1,9.26-3.41,46.49,46.49,0,0,1,10.87-1.25h20.26a40.78,40.78,0,0,1,10.4,1.25,28.86,28.86,0,0,1,8,3.34,14.57,14.57,0,0,1,4.93,4.92,8.75,8.75,0,0,1,1.08,6l-3.25,23.22H569.7l-2.57,17.85q-.27,2.1,2.16,3.67a11.51,11.51,0,0,0,6.35,1.57h6.49a14.7,14.7,0,0,0,6.75-1.57c2.07-1,3.28-2.27,3.65-3.67v-2.37a96.54,96.54,0,0,1,13-3.93,24.69,24.69,0,0,1,8.71-.66q3.18.52,3.79,2.82t-1.56,6.5a21.38,21.38,0,0,1-4,5.83A29.87,29.87,0,0,1,606,143a34.88,34.88,0,0,1-8.57,3.67A37.78,37.78,0,0,1,587,148H566.86a40.8,40.8,0,0,1-10.4-1.24,28.07,28.07,0,0,1-8.1-3.42,15.55,15.55,0,0,1-5.13-5.11,9.54,9.54,0,0,1-1.35-6.23Zm23.78,9.7h25l1.22-6.82q.14-2.22-2.37-3.87a11,11,0,0,0-6.14-1.64h-6.48A14,14,0,0,0,576.05,88q-3,1.65-3.11,3.87Z" style="fill: #fff"/>
      <path d="M489.07,74.3l-41.32,84.81a14.32,14.32,0,0,1-4.21,5.13,29.31,29.31,0,0,1-6.69,3.89,42.27,42.27,0,0,1-8.35,2.54,48.08,48.08,0,0,1-9.36.91,21.34,21.34,0,0,1-7.15-1.11,14.88,14.88,0,0,1-5.22-3,8.92,8.92,0,0,1-2.74-4.35,7.68,7.68,0,0,1,.4-5.06h11.63a13.79,13.79,0,0,0,5.95-1.23,7.83,7.83,0,0,0,3.68-3.19l2.41-5.06L413.26,74.3h23.26L444.27,115,464.2,74.3Z" style="fill: #fff"/>
    </g>
    <g>
      <path d="M401.65,31l-63.82-7a9.9,9.9,0,0,0-11,8.53L312.19,158.25A9.75,9.75,0,0,0,321,169l63.82,7a9.89,9.89,0,0,0,11-8.53L410.43,41.75A9.76,9.76,0,0,0,401.65,31Zm-43.52,1a1,1,0,0,1,1.15-.9l19.83,2.18a1,1,0,0,1,.92,1.12l0,.2a1,1,0,0,1-1.15.89L359,33.34a1,1,0,0,1-.91-1.12ZM361,163.82a7,7,0,0,1-7.8,6,6.9,6.9,0,0,1-6.22-7.57,7,7,0,0,1,7.8-6A6.9,6.9,0,0,1,361,163.82Zm43.48-95-1.63,11.68a18.48,18.48,0,0,1-4.52,9.38q-3.72,4.26-11.55,6.49a24.84,24.84,0,0,1,7.16,2.56,13.83,13.83,0,0,1,4.39,3.81,12.48,12.48,0,0,1,2.09,4.65,14,14,0,0,1,.14,5.12L397.7,132a12.62,12.62,0,0,1-3.1,6.23,23.39,23.39,0,0,1-6.55,5.11A37.66,37.66,0,0,1,379,146.8,44.91,44.91,0,0,1,368.26,148H340.57q-24.18,0-22.42-14.17l11.61-81.2H379.6a41.58,41.58,0,0,1,10.47,1.24,28.22,28.22,0,0,1,8.17,3.41,15.09,15.09,0,0,1,5.07,5.12A9.56,9.56,0,0,1,404.46,68.8Z" style="fill: #fff"/>
      <path d="M377.17,67.36a11.51,11.51,0,0,0-6.35-1.58H353l-3.51,24.14h18.24a13.2,13.2,0,0,0,6.41-1.57q2.91-1.57,3.18-3.54l2-13.52A4,4,0,0,0,377.17,67.36Z" style="fill: #fff"/>
      <path d="M374.2,104.75a9.68,9.68,0,0,0-5.94-1.71H347.73L343,134.92h20.39a13.89,13.89,0,0,0,6.62-1.57q3-1.57,3.25-3.67l2.7-21.13Q376.5,106.47,374.2,104.75Z" style="fill: #fff"/>
    </g>
  </g>
</svg>
